<?xml version="1.0" encoding="UTF-8"?>
<svg xmlns="http://www.w3.org/2000/svg" version="1.1" viewBox="0 0 612 792">
  <defs>
    <style>
      .cls-1 {
        fill: none;
      }

      .cls-1, .cls-2 {
        stroke: #1e1e1c;
        stroke-miterlimit: 10;
      }

      .cls-3 {
        fill: #457043;
      }

      .cls-2, .cls-4, .cls-5 {
        fill: #fff;
      }

      .cls-5, .cls-6 {
        font-family: MagicRetroRegular, 'Magic Retro';
        font-size: 9.41px;
      }

      .cls-7, .cls-6 {
        fill: #1e1e1c;
      }

      .cls-8 {
        display: none;
      }
    </style>
  </defs>
  <!-- Generator: Adobe Illustrator 28.7.0, SVG Export Plug-In . SVG Version: 1.2.0 Build 136)  -->
  <g>
    <g id="Layer_1" class="cls-8">
      <rect class="cls-1" x="72" y="55.5" width="468" height="468"/>
      <rect class="cls-2" x="486" y="555.75" width="54" height="54"/>
      <rect class="cls-2" x="410.5" y="555.75" width="54" height="54"/>
    </g>
    <g id="Layer_7" class="cls-8">
      <rect class="cls-7" x="486" y="555.75" width="54" height="54"/>
    </g>
    <g id="Layer_5">
      <g>
        <path class="cls-3" d="M411.14,391.08v-181.26c0-.55-.44-.99-.99-.99h-250.26c-.54,0-.98.43-.99.97-.26,11.27-2.66,118.43.02,186.21,2.78,70.09,120.9,92.25,125.89,93.15.11.02.22.02.33,0,.41-.07.81-.15,1.22-.22-1.29-1.69-1.96-2.72-1.96-2.72l61.47-14.91c67.02-30.7,65.27-80.22,65.27-80.22ZM251.27,273.67c.05-.12.1-.24.17-.36,1.77-3.17,3.96-3.69,7.19-4.55.61-.16,1.69-.36,2.3-.51,6.38-1.52,21.13.47,23.94.87,2.81-.4,17.56-2.4,23.94-.87.61.15,1.69.35,2.3.51,3.23.87,5.42,1.39,7.19,4.55.06.11.12.23.17.36.23.62.87,2.72,1.54,8.29-.05,1.9-.83,13.88-9.53,22.58-.05.04-3.96,3.38-15.17,2.26,0,0-3.04-.34-3.32-.67l.03,3.41c.02,2.7-1.84,5.09-4.48,5.63-.04,0-.08.02-.12.02-.02,0-.04,0-.06,0-.26.02-1.98.13-2.48.05-.5.08-2.22-.03-2.48-.05-.02,0-.04,0-.06,0-3.88-.75-4.62-2.92-4.62-2.92l.05-6.14c-.28.33-3.32.67-3.32.67-11.21,1.12-15.12-2.21-15.17-2.26-8.69-8.7-9.48-20.68-9.53-22.58.67-5.57,1.31-7.67,1.54-8.29ZM376.38,412.43s-4.47,9.03-18.77,16.12c0,0-3.75,2.04-17.82-7.04,0,0-17.21-12.99-56.62-15.28-37.68,2.17-54.34,14.39-54.34,14.39-14.19,8.89-17.91,6.8-17.91,6.8-14.21-7.28-18.55-16.37-18.55-16.37-1.17-9.44,5.3-19.11,5.3-19.11,4.91-10.6,4.68-12.94,4.68-12.94.78-3.42-4.08-12.13-4.08-12.13-4.54-8.3-5.06-14.85-5.06-14.85,5.52-15.09,14.28-19.46,18.98-20.73,2.19-.59,4.51-.51,6.66.2,8.41,2.76,23.5,12.59,23.5,12.59,15.42,7.23,33.85,8.88,44.44,9.18,10.85-.45,26.82-2.27,40.51-8.47,0,0,15.22-9.63,23.67-12.28,2.17-.68,4.48-.73,6.67-.11,4.69,1.33,13.38,5.82,18.7,20.98,0,0-.61,6.54-5.26,14.78,0,0-4.98,8.65-4.24,12.08,0,0-.26,2.34,4.5,13.01,0,0,6.33,9.76,5.04,19.18Z"/>
        <path class="cls-3" d="M363.39,509.88s3.19-3.06-5.11-8.31c-.82-2.68-17.44-14.78-12.36-30.28h-.05c-15.74,7.22-35.27,13.39-59.51,17.64,7.89,10.38,38.73,45.71,77.03,20.95Z"/>
        <path class="cls-3" d="M286.36,488.93c24.24-4.25,43.77-10.42,59.51-17.63l-61.47,14.91s.68,1.03,1.96,2.72Z"/>
        <path class="cls-4" d="M366.83,380.25c-.73-3.43,4.24-12.08,4.24-12.08,4.65-8.24,5.26-14.78,5.26-14.78-5.32-15.16-14.01-19.65-18.7-20.98-2.19-.62-4.5-.57-6.67.11-8.44,2.65-23.67,12.28-23.67,12.28-13.69,6.19-29.66,8.02-40.51,8.47,5.32.15,8.67-.04,8.67-.04l-.71,52.68c-4.07,0-7.92.12-11.59.33,39.4,2.29,56.62,15.28,56.62,15.28,14.07,9.08,17.82,7.04,17.82,7.04,14.31-7.09,18.77-16.12,18.77-16.12,1.29-9.42-5.04-19.18-5.04-19.18-4.77-10.67-4.5-13.01-4.5-13.01Z"/>
        <path class="cls-4" d="M274.07,353.22s5.1.36,12.73.04c-10.6-.3-29.02-1.95-44.44-9.18,0,0-15.09-9.83-23.5-12.59-2.16-.71-4.47-.79-6.66-.2-4.7,1.27-13.46,5.64-18.98,20.73,0,0,.52,6.55,5.06,14.85,0,0,4.86,8.71,4.08,12.13,0,0,.23,2.34-4.68,12.94,0,0-6.46,9.67-5.3,19.11,0,0,4.34,9.09,18.55,16.37,0,0,3.72,2.09,17.91-6.8,0,0,16.66-12.22,54.34-14.39-2.92-.17-5.94-.29-9.11-.33v-52.69Z"/>
        <path class="cls-4" d="M295.47,353.22s-3.36.19-8.67.04c-7.62.32-12.73-.04-12.73-.04v52.69c3.16.04,6.19.16,9.11.33,3.67-.21,7.52-.33,11.59-.33l.71-52.68Z"/>
        <path class="cls-4" d="M285.01,315.2s-.06.04-.14.05c.5.08,2.22-.03,2.48-.05.02,0,.04,0,.06,0,.04,0,.08-.02.12-.02,2.65-.54,4.5-2.93,4.48-5.63l-.03-3.41c.28.33,3.32.67,3.32.67,11.21,1.12,15.12-2.21,15.17-2.26,8.69-8.7,9.48-20.68,9.53-22.58-.67-5.57-1.31-7.67-1.54-8.29-.05-.12-.1-.24-.17-.36-1.77-3.17-3.96-3.69-7.19-4.55-.61-.16-1.69-.36-2.3-.51-6.38-1.52-21.13.47-23.94.87.3.04.47.07.47.07l-.33,46.01Z"/>
        <path class="cls-4" d="M274.43,306.8s3.04-.34,3.32-.67l-.05,6.14s.74,2.17,4.62,2.92c.02,0,.04,0,.06,0,.26.02,1.98.13,2.48.05-.08-.01-.13-.03-.14-.05l-.33-46.01s.17-.03.47-.07c-2.81-.4-17.56-2.4-23.94-.87-.61.15-1.69.35-2.3.51-3.23.87-5.42,1.39-7.19,4.55-.06.11-.12.23-.17.36-.23.62-.87,2.72-1.54,8.29.05,1.9.83,13.88,9.53,22.58.05.04,3.96,3.38,15.17,2.26Z"/>
        <path class="cls-4" d="M284.73,315.2s.06.04.14.05c.08-.01.13-.03.14-.05l.33-46.01s-.17-.03-.47-.07c-.3.04-.47.07-.47.07l.33,46.01Z"/>
      </g>
      <g>
        <path class="cls-3" d="M174.96,89.69c-.99,3.09-1.57,10.17-1.73,21.25,2.04-5.59,4.81-8.84,8.31-9.73,2.82-.73,5.46-.24,7.92,1.49,2.46,1.73,4.12,4.29,4.98,7.69.86,3.4,1.01,6.8.43,10.2-.58,3.4-1.6,6.38-3.06,8.94-1.88,3.24-4.26,5.84-7.14,7.8-2.88,1.96-6.12,2.86-9.73,2.71h-17.72c1.52-3.66,2.27-11.27,2.27-22.82s-.76-18.93-2.27-22.12c2.82-.37,6-1.08,9.53-2.16,3.53-1.07,6.26-2.16,8.2-3.25ZM178.02,109.53c-1.15.05-2.17.89-3.06,2.51-.89,1.62-1.49,3.71-1.8,6.27.05,8.52.44,14.82,1.18,18.9,2.51-2.61,4.5-6.17,5.96-10.67,1.46-4.5,2-8.47,1.61-11.92s-1.69-5.15-3.88-5.1Z"/>
        <path class="cls-3" d="M268.36,114.78c-.58,3.82-2.41,6.5-5.49,8.04-3.09,1.54-6.33,1.32-9.72-.67.63-.42,1.19-1.14,1.69-2.16.5-1.02.86-2.09,1.1-3.22.23-1.12.36-2.21.39-3.25.03-1.05-.07-1.92-.27-2.63-.21-.71-.52-1.08-.94-1.14-.47-.05-.95.13-1.45.55-.5.42-.94,1.06-1.33,1.92s-.75,1.66-1.06,2.39c-.31.73-.63,1.69-.94,2.86-.31,1.18-.52,2.01-.63,2.51-.1.5-.26,1.16-.47,2,.05,8.73.73,14.74,2.04,18.04-3.35-1.31-8.89-1.41-16.63-.31-1.62.21-3.01.37-4.16.47-1.15.11-2.39.14-3.73.12-1.33-.03-2.44-.17-3.33-.43-.89-.26-1.79-.69-2.71-1.29-.92-.6-1.65-1.37-2.2-2.31-.55-.94-.99-2.13-1.33-3.57-.34-1.44-.51-3.1-.51-4.98-.52,1.83-1.06,3.41-1.61,4.74-.55,1.33-1.28,2.71-2.2,4.12-.92,1.41-2.07,2.5-3.45,3.25-1.39.76-2.99,1.14-4.82,1.14-2.93,0-5.24-1.03-6.94-3.1-1.7-2.06-2.46-4.52-2.27-7.37.18-2.85,1.29-5.32,3.33-7.41,1.46-1.52,3.29-2.84,5.49-3.96,2.2-1.12,4.14-1.95,5.84-2.47,1.7-.52,3.29-1.32,4.78-2.39,1.49-1.07,2.44-2.44,2.86-4.12.42-1.73.34-3.33-.23-4.82-.58-1.49-1.73-2.29-3.45-2.39-.89-.1-1.76.11-2.63.63-.86.52-1.53,1.19-2,2-.47.81-.56,1.8-.27,2.98.29,1.18,1.01,2.34,2.16,3.49-1.1,1.36-2.59,2.26-4.47,2.71-1.88.44-3.67.25-5.37-.59-1.7-.84-2.78-2.25-3.25-4.23-.37-2.82,1.33-5.25,5.1-7.29,4.13-2.2,8.71-2.95,13.72-2.27,6.01.73,10.06,3.43,12.16,8.08.89,1.99,1.33,4.26,1.33,6.82l.08,14.43c0,5.7,1.31,8.26,3.92,7.69,1.52-.31,3.23-1.61,5.14-3.88,1.91-2.27,3.52-4.6,4.82-6.98,1.31-2.38,2.3-4.56,2.98-6.55.37-.89.85-2.26,1.45-4.12.6-1.85,1.18-3.48,1.73-4.86.55-1.38,1.16-2.71,1.84-3.96,2.2-4.03,4.84-5.93,7.92-5.73,2.77.16,4.93,1.65,6.47,4.47,1.54,2.82,2.05,5.83,1.53,9.02ZM216.68,121.21c0-2.2.03-3.76.08-4.71-.16.1-.37.31-.63.63-1.15,1.15-2.04,2.09-2.67,2.82-.63.73-1.32,1.83-2.08,3.29-.76,1.46-1.27,2.98-1.53,4.55-.21,1.25-.18,2.25.08,2.98.26.73.68,1.1,1.25,1.1,1.15-.1,2.16-1.08,3.02-2.94.86-1.86,1.69-4.43,2.47-7.73ZM249.23,107.57c-.47,2.46-1.33,5.42-2.59,8.9-1.25,3.48-2.95,7.01-5.1,10.59-2.14,3.58-4.26,5.84-6.35,6.78.73-5.18.89-10.82.47-16.94-.42-6.12-1.12-10.12-2.12-12,5.44-.52,10.67-1.67,15.69-3.45v6.12Z"/>
        <path class="cls-3" d="M285.38,124.04c.26,8.31.84,13.65,1.73,16h-17.65c1.52-3.66,2.27-11.27,2.27-22.82s-.76-18.93-2.27-22.12c2.77-.37,5.91-1.08,9.41-2.16,3.5-1.07,6.25-2.16,8.23-3.25-.68,2.09-1.19,6.38-1.53,12.86-.34,6.48-.43,13.05-.27,19.69,2.09-1.36,3.96-2.76,5.61-4.2,1.65-1.44,2.98-2.78,4-4.04s1.86-2.48,2.51-3.69c.65-1.2,1.1-2.29,1.33-3.25.24-.97.34-1.85.31-2.67-.03-.81-.17-1.49-.43-2.04-.26-.55-.6-.98-1.02-1.29.68-.89,1.5-1.54,2.47-1.96.97-.42,1.91-.59,2.82-.51.91.08,1.76.37,2.55.86.78.5,1.33,1.16,1.65,2,1.67,4.44-1.7,9.88-10.12,16.31.26.52,1.41,2.86,3.45,7.02,2.04,4.16,3.85,7.52,5.45,10.08,1.59,2.56,3.07,4.29,4.43,5.18h-19.69c1.31-1.62.5-5.28-2.43-10.98-.52-.99-1.44-2.67-2.74-5.02h-.08Z"/>
        <path class="cls-3" d="M327.81,140.04h-17.1c1.15-2.61,1.86-5.69,2.12-9.22.26-3.53.17-6.72-.27-9.57-.45-2.85-1.06-5.06-1.84-6.63,3.19,0,6.34-.34,9.45-1.02,3.11-.68,5.66-1.7,7.65-3.06-1.15,2.93-1.79,7.56-1.92,13.88-.13,6.33.51,11.53,1.92,15.61ZM313.26,108.55c-1.65-1.23-2.47-2.73-2.47-4.51s.82-3.29,2.47-4.55c1.65-1.25,3.65-1.88,6-1.88s4.37.63,6.04,1.88c1.67,1.25,2.51,2.77,2.51,4.55s-.84,3.28-2.51,4.51c-1.67,1.23-3.69,1.84-6.04,1.84s-4.35-.61-6-1.84Z"/>
        <path class="cls-3" d="M378.55,121.45c-1.99-1.73-3.41-3.69-4.27-5.88-.86-2.2-1.11-4.33-.75-6.39.37-2.06,1.54-4,3.53-5.8,1.99-1.8,4.63-3.1,7.92-3.88,6.17-1.46,11.76-.65,16.78,2.43,1.83-2.72,4.09-4.52,6.78-5.41,2.69-.89,5.11-.39,7.25,1.49,1.05,1.1,1.57,2.31,1.57,3.65s-.43,2.46-1.29,3.37c-.86.92-1.96,1.57-3.29,1.96-1.33.39-2.81.17-4.43-.67.63-1.2.75-2.23.35-3.1-.39-.86-1.03-1.31-1.92-1.33-.89-.03-1.73.25-2.51.82-.21.16-.39.34-.55.55,1.78,1.41,3.21,3.03,4.31,4.86,1.1,1.83,1.71,3.7,1.84,5.61.13,1.91-.18,3.7-.94,5.37-.76,1.67-2.2,3.14-4.31,4.39-2.12,1.25-4.77,2.09-7.96,2.51-4.29.58-8.21.24-11.76-1.02-.26-.1-.55-.21-.86-.31-.84.37-1.35.94-1.53,1.73-.18.78-.01,1.33.51,1.65.78.63,1.95.99,3.49,1.1,1.54.11,3.23.05,5.06-.16,1.83-.21,3.71-.38,5.65-.51,1.93-.13,3.95-.05,6.04.24,2.09.29,3.89.9,5.41,1.84,1.93,1.1,3.35,2.52,4.24,4.27.89,1.75,1.2,3.57.94,5.45-.26,1.83-1.08,3.48-2.47,4.94-1.39,1.46-3.18,2.65-5.37,3.57-2.2.92-4.6,1.65-7.22,2.2-2.62.55-5.44.93-8.47,1.14-3.76.26-7.14.2-10.12-.2-2.98-.39-5.5-.9-7.57-1.53-2.07-.63-3.95-1.75-5.65-3.37-1.7-1.62-3.05-3.06-4.04-4.31-.99-1.25-1.97-3.19-2.94-5.8-.97-2.61-1.67-4.73-2.12-6.35-.44-1.62-1.09-4.08-1.92-7.37-.73-2.82-1.28-4.97-1.65-6.43-1.31-4.76-2.46-7.14-3.45-7.14-1.1,0-2.03.93-2.78,2.78-.76,1.86-1.56,4.64-2.39,8.35-.21.84-.42,1.73-.63,2.67.16,8.78.81,14.33,1.96,16.63h-17.1c.58-.78,1.08-3.28,1.53-7.49.44-4.21.61-8.33.51-12.35-.16-3.35-.46-6.47-.9-9.37-.44-2.9-.95-4.88-1.53-5.92,5.44-.52,10.67-1.67,15.69-3.45v14.04c.05-.21.16-.52.31-.94.52-2.04.98-3.66,1.37-4.86.39-1.2,1.06-2.6,2-4.2.94-1.59,2.01-2.76,3.21-3.49,2.35-1.25,4.61-1.5,6.78-.74,2.17.76,3.99,2.31,5.45,4.67.52.94,1.06,2.05,1.61,3.33.55,1.28,1.08,2.8,1.61,4.55.52,1.75.94,3.19,1.25,4.31.31,1.12.75,2.73,1.29,4.82.55,2.09.88,3.4.98,3.92.99,3.56,2.07,6.65,3.22,9.29,1.15,2.64,2.29,4.73,3.41,6.27,1.12,1.54,2.37,2.78,3.73,3.73,1.36.94,2.59,1.6,3.69,1.96,1.1.37,2.35.6,3.76.71,3.66.37,6.64-.34,8.94-2.12,1.93-1.52,2.33-2.98,1.18-4.39-.47-.57-1.07-1.05-1.8-1.41-1.05-.52-2.41-.99-4.08-1.41-1.67-.42-3.32-.78-4.94-1.1-1.62-.31-3.23-.67-4.82-1.06s-3.01-.94-4.23-1.65c-1.23-.71-2.08-1.56-2.55-2.55-.37-.78-.56-1.62-.59-2.51-.03-.89.13-1.76.47-2.63.34-.86.94-1.7,1.8-2.51.86-.81,1.92-1.5,3.18-2.08-1.05-.57-2.01-1.23-2.9-1.96ZM395.65,111.88c-1.46-2.77-3.18-5.16-5.14-7.18-1.96-2.01-3.62-2.84-4.98-2.47-1.15.31-1.6,1.67-1.33,4.08.26,2.41,1.1,4.97,2.51,7.69,1.83,3.45,3.69,5.96,5.57,7.53,1.88,1.57,3.4,2.09,4.55,1.57.68-.26,1.12-.86,1.33-1.8.21-.94.1-2.23-.31-3.88-.42-1.65-1.15-3.49-2.2-5.53Z"/>
        <path class="cls-3" d="M178.06,149.66c-.99,3.09-1.57,10.17-1.73,21.25,2.04-5.59,4.81-8.84,8.31-9.73,2.82-.73,5.46-.24,7.92,1.49,2.46,1.73,4.12,4.29,4.98,7.69.86,3.4,1.01,6.8.43,10.2-.58,3.4-1.6,6.38-3.06,8.94-1.88,3.24-4.26,5.84-7.14,7.8-2.88,1.96-6.12,2.86-9.73,2.71h-17.72c1.52-3.66,2.27-11.27,2.27-22.82s-.76-18.93-2.27-22.12c2.82-.37,6-1.08,9.53-2.16,3.53-1.07,6.26-2.16,8.2-3.25ZM181.12,169.5c-1.15.05-2.17.89-3.06,2.51-.89,1.62-1.49,3.71-1.8,6.27.05,8.52.44,14.82,1.18,18.9,2.51-2.61,4.5-6.17,5.96-10.67,1.46-4.5,2-8.47,1.61-11.92s-1.69-5.15-3.88-5.1Z"/>
        <path class="cls-3" d="M215.94,200.01h-17.1c1.15-2.61,1.86-5.69,2.12-9.22.26-3.53.17-6.72-.27-9.57-.44-2.85-1.06-5.06-1.84-6.63,3.19,0,6.34-.34,9.45-1.02,3.11-.68,5.66-1.7,7.65-3.06-1.15,2.93-1.79,7.56-1.92,13.88-.13,6.33.51,11.53,1.92,15.61ZM201.39,168.52c-1.65-1.23-2.47-2.73-2.47-4.51s.82-3.29,2.47-4.55c1.65-1.25,3.65-1.88,6-1.88s4.36.63,6.04,1.88c1.67,1.25,2.51,2.77,2.51,4.55s-.84,3.28-2.51,4.51c-1.67,1.23-3.69,1.84-6.04,1.84s-4.35-.61-6-1.84Z"/>
        <path class="cls-3" d="M223.62,167.31c.89-1.83,2.37-3.35,4.43-4.55,2.06-1.2,4.26-1.95,6.59-2.24,2.33-.29,4.6-.29,6.82,0,2.22.29,4.09,1.05,5.61,2.27,1.52,1.23,2.3,2.73,2.35,4.51.05,1.15-.27,2.17-.98,3.06-.71.89-1.62,1.5-2.74,1.84-1.12.34-2.3.46-3.53.35-1.23-.1-2.39-.52-3.49-1.25-1.1-.73-1.93-1.75-2.51-3.06,1.52-.42,2.44-1.06,2.78-1.92.34-.86.14-1.63-.59-2.31-.73-.68-1.7-1.04-2.9-1.1-1.41-.05-2.43.41-3.06,1.37-.63.97-.84,1.95-.63,2.94.05.26.12.5.2.71.08.21.21.43.39.67.18.23.34.44.47.63.13.18.33.38.59.59.26.21.46.38.59.51.13.13.38.33.75.59.36.26.61.43.74.51.13.08.4.25.82.51.42.26.68.44.78.55,6.01,3.92,9.67,6.38,10.98,7.37,1.99,1.46,3.52,2.88,4.59,4.24,1.07,1.36,1.74,2.9,2,4.63.31,2.09-.01,3.96-.98,5.61-.97,1.65-2.39,2.97-4.27,3.96-1.88.99-3.95,1.74-6.2,2.24-2.25.5-4.6.77-7.06.82-6.74.11-11.61-.81-14.59-2.74-2.98-1.93-4.42-4.31-4.31-7.14.05-1.67.72-3.06,2-4.16,1.28-1.1,3.01-1.67,5.18-1.73,2.17-.05,4.69.71,7.57,2.27-1.2.94-1.94,2.08-2.2,3.41-.26,1.33-.12,2.55.43,3.65.55,1.1,1.48,2.03,2.78,2.78,1.31.76,2.77,1.11,4.39,1.06,1.93-.1,3.29-.91,4.08-2.43.42-.63.56-1.29.43-2-.13-.71-.35-1.33-.67-1.88-.31-.55-.8-1.14-1.45-1.76-.65-.63-1.32-1.2-2-1.73-.68-.52-1.46-1.06-2.35-1.61-.89-.55-1.69-1.03-2.39-1.45-.71-.42-1.44-.85-2.2-1.29-.76-.44-1.37-.85-1.84-1.22-2.09-1.52-3.7-3.24-4.82-5.18-1.12-1.93-1.7-3.8-1.73-5.61-.03-1.8.35-3.57,1.14-5.29Z"/>
        <path class="cls-3" d="M266.75,165.89c-1.41.31-1.94,1.96-1.57,4.94.47,4.13,2.22,7.92,5.25,11.37,5.02,5.65,11.48,7.56,19.37,5.73l3.53-1.1c-.16,1.31-.48,2.55-.98,3.73-.5,1.18-1.11,2.26-1.84,3.25-.73.99-1.58,1.91-2.55,2.75-.97.84-2.04,1.57-3.22,2.2-1.18.63-2.42,1.12-3.73,1.49-5.23,1.41-10.12.73-14.67-2.04-2.25-1.36-4.12-3.07-5.61-5.14-1.49-2.06-2.48-4.25-2.98-6.55-.5-2.3-.69-4.67-.59-7.1.1-2.43.67-4.75,1.69-6.94s2.27-4.17,3.76-5.92c1.49-1.75,3.38-3.14,5.69-4.16,2.3-1.02,4.76-1.53,7.37-1.53,3.82,0,6.38,1.28,7.69,3.84,1.31,2.56,1.29,5.14-.04,7.73-1.33,2.59-3.33,3.88-6,3.88-.73-2.87-2.29-5.41-4.67-7.61-2.38-2.2-4.35-3.14-5.92-2.82Z"/>
        <path class="cls-3" d="M333.97,161.42c-1.15,2.93-1.79,9.07-1.92,18.43-.13,9.36.51,16.08,1.92,20.16h-17.1c1.46-3.4,2.22-8.78,2.27-16.16l-.08.24c-.99,3.97-2.12,7.25-3.37,9.84-1.25,2.59-2.88,4.46-4.86,5.61-1.2.73-2.59,1.16-4.16,1.29-1.57.13-3.15-.21-4.75-1.02-1.6-.81-2.78-2.1-3.57-3.88-.89-1.93-1.41-4.73-1.57-8.39-.16-3.66-.34-7.55-.55-11.69-.21-4.13-.81-7.55-1.8-10.27,6.01-.73,11.16-2.12,15.45-4.16v17.1c0,8.94.91,13.39,2.74,13.33,1.2-.1,2.24-1.11,3.1-3.02.86-1.91,1.69-4.54,2.47-7.88.26-1.05.5-2.12.71-3.22-.37-6.17-1.05-10.22-2.04-12.16,2.72-.26,5.78-.81,9.18-1.65,3.4-.84,6.04-1.67,7.92-2.51Z"/>
        <path class="cls-3" d="M353.02,200.01h-17.1c1.15-2.61,1.86-5.69,2.12-9.22.26-3.53.17-6.72-.27-9.57-.45-2.85-1.06-5.06-1.84-6.63,3.19,0,6.34-.34,9.45-1.02,3.11-.68,5.66-1.7,7.65-3.06-1.15,2.93-1.79,7.56-1.92,13.88-.13,6.33.51,11.53,1.92,15.61ZM338.48,168.52c-1.65-1.23-2.47-2.73-2.47-4.51s.82-3.29,2.47-4.55c1.65-1.25,3.65-1.88,6-1.88s4.37.63,6.04,1.88c1.67,1.25,2.51,2.77,2.51,4.55s-.84,3.28-2.51,4.51c-1.67,1.23-3.69,1.84-6.04,1.84s-4.35-.61-6-1.84Z"/>
        <path class="cls-3" d="M354.43,161.42c2.82-.52,5.82-1.4,8.98-2.63,3.16-1.23,5.53-2.47,7.1-3.73v6.35h6.82v2.67h-6.98c.1,13.23.16,20.03.16,20.39.05,8.47,2.85,13.88,8.39,16.23,3.71,1.57,7.61,1.54,11.69-.08,2.98-1.2,4.71-2.72,5.18-4.55.21-.99.17-1.97-.12-2.94-.29-.97-.71-1.82-1.25-2.55-.55-.73-1.28-1.46-2.2-2.2-.92-.73-1.76-1.35-2.55-1.84-.78-.5-1.67-1.06-2.67-1.69s-1.72-1.12-2.2-1.49c-1.62-1.15-2.94-2.42-3.96-3.8-1.02-1.38-1.74-2.78-2.16-4.2-.42-1.41-.58-2.8-.47-4.16.1-1.36.47-2.67,1.1-3.92.94-1.83,2.43-3.35,4.47-4.55,2.04-1.2,4.23-1.95,6.59-2.24,2.35-.29,4.64-.29,6.86,0,2.22.29,4.08,1.05,5.57,2.27,1.49,1.23,2.29,2.73,2.39,4.51.05,1.46-.48,2.68-1.61,3.65-1.12.97-2.42,1.53-3.88,1.69-1.46.16-2.95-.14-4.47-.9-1.52-.76-2.62-1.92-3.29-3.49,1.52-.42,2.43-1.06,2.75-1.92.31-.86.12-1.63-.59-2.31-.71-.68-1.66-1.04-2.86-1.1-.73-.05-1.37.07-1.92.35-.55.29-.96.65-1.22,1.1-.26.44-.46.93-.59,1.45-.13.52-.14.99-.04,1.41.26,1.2,1.1,2.42,2.51,3.65,1.41,1.23,3.1,2.42,5.06,3.57,1.96,1.15,3.93,2.33,5.92,3.53,1.99,1.2,3.84,2.6,5.57,4.2,1.73,1.6,2.93,3.2,3.61,4.82.68,1.99.8,3.8.35,5.45-.45,1.65-1.45,3.12-3.02,4.43-1.57,1.31-3.31,2.44-5.22,3.41-1.91.97-4,1.79-6.27,2.47-2.27.68-4.34,1.22-6.2,1.61-1.86.39-3.49.64-4.9.75-2.72.21-5.37.2-7.96-.04s-5.12-.77-7.61-1.61c-2.48-.84-4.65-1.93-6.51-3.29-1.86-1.36-3.35-3.14-4.47-5.33-1.12-2.2-1.69-4.71-1.69-7.53v-10.74c0-.99-.01-2.33-.04-4-.03-1.67-.09-2.9-.2-3.69-.11-.78-.24-1.7-.39-2.75-.16-1.05-.37-1.92-.63-2.63-.26-.71-.58-1.4-.94-2.08Z"/>
      </g>
    </g>
    <g id="Layer_6" class="cls-8">
      <g>
        <path class="cls-7" d="M421.64,571.32h30.02c.07,0,.12.05.12.12v21.74s.33,9.12-15.11,11.76c-.01,0-.03,0-.04,0-.6-.11-14.77-2.77-15.1-11.17-.32-8.13-.03-20.98,0-22.33,0-.06.05-.12.12-.12Z"/>
        <path class="cls-7" d="M436.58,604.59s4.13,6.29,9.47,2.84c0,0,.38-.37-.61-1-.1-.32-2.09-1.77-1.48-3.63"/>
        <g>
          <path class="cls-4" d="M435.34,588.64s3.59.25,6.39-1.01c0,0,1.83-1.16,2.84-1.47.26-.08.54-.09.8-.01.56.16,1.61.7,2.24,2.52,0,0-.07.78-.63,1.77,0,0-.6,1.04-.51,1.45,0,0-.03.28.54,1.56,0,0,.76,1.17.6,2.3,0,0-.54,1.08-2.25,1.93,0,0-.45.25-2.14-.84,0,0-2.38-1.8-7.88-1.87v-6.32Z"/>
          <path class="cls-4" d="M437.9,588.64s-3.59.21-6.37-1.1c0,0-1.81-1.18-2.82-1.51-.26-.09-.54-.09-.8-.02-.56.15-1.61.68-2.28,2.49,0,0,.06.79.61,1.78,0,0,.58,1.05.49,1.46,0,0,.03.28-.56,1.55,0,0-.78,1.16-.64,2.29,0,0,.52,1.09,2.23,1.96,0,0,.45.25,2.15-.82,0,0,2.4-1.77,7.91-1.77l.09-6.32Z"/>
        </g>
        <g>
          <path class="cls-4" d="M436.58,578.56s2.08-.32,2.93-.11c.07.02.2.04.28.06.39.1.65.17.86.55,0,.01.01.03.02.04.03.07.1.33.18.99,0,.23-.1,1.67-1.14,2.71,0,0-.47.41-1.82.27,0,0-.37-.04-.4-.08v.41c0,.32-.22.61-.53.67,0,0,0,0-.01,0,0,0,0,0,0,0-.04,0-.31.02-.31,0"/>
          <path class="cls-4" d="M436.69,578.56s-2.08-.32-2.93-.11c-.07.02-.2.04-.28.06-.39.1-.65.17-.86.55,0,.01-.01.03-.02.04-.03.07-.1.33-.18.99,0,.23.1,1.67,1.14,2.71,0,0,.47.41,1.82.27,0,0,.37-.04.4-.08v.74s.08.26.55.35c0,0,0,0,0,0,.04,0,.31.02.31,0"/>
        </g>
        <text class="cls-6" transform="translate(421.24 564.79)"><tspan x="0" y="0">barking</tspan><tspan x=".37" y="7.19">biscuits</tspan></text>
      </g>
      <path class="cls-4" d="M497.95,571.32h30.02c.07,0,.12.05.12.12v21.74s.33,9.12-15.11,11.76c-.01,0-.03,0-.04,0-.6-.11-14.77-2.77-15.1-11.17-.32-8.13-.03-20.98,0-22.33,0-.06.05-.12.12-.12Z"/>
      <path class="cls-4" d="M512.89,604.59s4.13,6.29,9.47,2.84c0,0,.38-.37-.61-1-.1-.32-2.09-1.77-1.48-3.63"/>
      <g>
        <path class="cls-7" d="M511.65,588.64s3.59.25,6.39-1.01c0,0,1.83-1.16,2.84-1.47.26-.08.54-.09.8-.01.56.16,1.61.7,2.24,2.52,0,0-.07.78-.63,1.77,0,0-.6,1.04-.51,1.45,0,0-.03.28.54,1.56,0,0,.76,1.17.6,2.3,0,0-.54,1.08-2.25,1.93,0,0-.45.25-2.14-.84,0,0-2.38-1.8-7.88-1.87v-6.32Z"/>
        <path class="cls-7" d="M514.21,588.64s-3.59.21-6.37-1.1c0,0-1.81-1.18-2.82-1.51-.26-.09-.54-.09-.8-.02-.56.15-1.61.68-2.28,2.49,0,0,.06.79.61,1.78,0,0,.58,1.05.49,1.46,0,0,.03.28-.56,1.55,0,0-.78,1.16-.64,2.29,0,0,.52,1.09,2.23,1.96,0,0,.45.25,2.15-.82,0,0,2.4-1.77,7.91-1.77l.09-6.32Z"/>
      </g>
      <g>
        <path class="cls-7" d="M512.89,578.56s2.08-.32,2.93-.11c.07.02.2.04.28.06.39.1.65.17.86.55,0,.01.01.03.02.04.03.07.1.33.18.99,0,.23-.1,1.67-1.14,2.71,0,0-.47.41-1.82.27,0,0-.37-.04-.4-.08v.41c0,.32-.22.61-.53.67,0,0,0,0-.01,0,0,0,0,0,0,0-.04,0-.31.02-.31,0"/>
        <path class="cls-7" d="M513,578.56s-2.08-.32-2.93-.11c-.07.02-.2.04-.28.06-.39.1-.65.17-.86.55,0,.01-.01.03-.02.04-.03.07-.1.33-.18.99,0,.23.1,1.67,1.14,2.71,0,0,.47.41,1.82.27,0,0,.37-.04.4-.08v.74s.08.26.55.35c0,0,0,0,0,0,.04,0,.31.02.31,0"/>
      </g>
      <text class="cls-5" transform="translate(497.55 564.79)"><tspan x="0" y="0">barking</tspan><tspan x=".37" y="7.19">biscuits</tspan></text>
    </g>
  </g>
</svg>